<?xml version="1.0" encoding="UTF-8" standalone="no"?><!DOCTYPE svg PUBLIC "-//W3C//DTD SVG 1.1//EN" "http://www.w3.org/Graphics/SVG/1.1/DTD/svg11.dtd"><svg width="100%" height="100%" viewBox="0 0 4175 1963" version="1.1" xmlns="http://www.w3.org/2000/svg" xmlns:xlink="http://www.w3.org/1999/xlink" xml:space="preserve" xmlns:serif="http://www.serif.com/" style="fill-rule:evenodd;clip-rule:evenodd;stroke-miterlimit:2;"><g><g><path d="M1325,597.808l182.633,0l-0,38.764l-68.078,0l-0,183.614l-46.473,-0l0,-183.614l-68.082,0l0,-38.764Z" style="fill:#294033;fill-rule:nonzero;"/><path d="M1567.9,820.186l-46.256,-0l-0,-222.378l44.952,0l-0,85.02l1.954,0c7.602,-19.652 24.54,-31.595 49.84,-31.595c34.746,0 57.766,23.67 57.655,62.761l0,106.192l-46.255,-0l-0,-97.94c0.11,-20.522 -10.967,-32.576 -29.752,-32.576c-18.891,0 -32.032,12.593 -32.138,34.096l-0,96.42Z" style="fill:#294033;fill-rule:nonzero;"/><path d="M1806.24,719.965c-0.11,-19.868 -14.007,-34.202 -34.096,-34.202c-20.522,-0 -34.963,15.2 -35.94,34.202l70.036,0Zm-115.748,17.588c-0,-51.467 31.811,-86.32 80.892,-86.32c44.085,0 78.398,28.015 78.398,84.693l-0,12.703l-113.578,0l0,0.111c0,24.863 14.657,40.174 37.787,40.174c15.418,-0 27.361,-6.622 32.032,-19.325l42.778,2.82c-6.515,30.945 -34.309,51.034 -75.57,51.034c-51.361,0 -82.739,-33.009 -82.739,-85.89Z" style="fill:#294033;fill-rule:nonzero;"/><path d="M1930.31,597.808l47.016,0l0,183.614l95.333,-0l-0,38.764l-142.349,-0l0,-222.378Z" style="fill:#294033;fill-rule:nonzero;"/><path d="M2183.2,760.573l0,-17.698c-5.538,3.694 -22.043,6.085 -32.142,7.496c-16.288,2.276 -27.038,8.681 -27.038,21.711c0,12.708 10.21,19.329 24.434,19.329c20.302,0 34.746,-13.353 34.746,-30.838Zm-103.371,13.03c-0,-37.244 29.645,-48.32 62.654,-51.357c28.991,-2.824 40.39,-4.235 40.39,-14.984l0,-0.654c0,-13.68 -9.012,-21.606 -24.756,-21.606c-16.615,0 -26.494,8.142 -29.642,19.219l-42.781,-3.474c6.405,-30.406 32.682,-49.514 72.639,-49.514c37.137,0 70.796,16.721 70.796,56.462l0,112.491l-43.869,-0l0,-23.126l-1.3,-0c-8.145,15.523 -24.106,26.273 -48.753,26.273c-31.815,0 -55.378,-16.721 -55.378,-49.73Z" style="fill:#294033;fill-rule:nonzero;"/><path d="M2231.16,653.404l46.799,-0l25.844,112.057l1.521,-0l26.927,-112.057l45.929,-0l27.364,111.403l1.41,0l25.407,-111.403l46.693,-0l-45.279,166.782l-48.97,-0l-28.668,-104.888l-2.06,-0l-28.668,104.888l-48.86,-0l-45.389,-166.782Z" style="fill:#294033;fill-rule:nonzero;"/><path d="M2639.62,634.079c-23.019,-0 -35.726,10.529 -35.726,24.863c-0.323,15.961 15.854,23.126 35.183,27.581l19.979,4.774c38.653,8.689 66.557,28.341 66.668,65.372c-0.111,40.714 -32.033,66.664 -86.324,66.664c-53.965,0 -88.384,-24.863 -89.577,-72.962l45.495,-0c1.521,22.255 19.108,33.548 43.542,33.548c23.887,0 39.304,-11.076 39.414,-27.364c-0.11,-14.984 -13.574,-21.933 -37.787,-27.794l-24.213,-6.082c-37.57,-9.012 -60.696,-27.797 -60.59,-60.586c-0.217,-40.395 35.506,-67.322 84.26,-67.322c49.513,0 82.089,27.361 82.739,66.995l-45.063,0c-1.737,-17.481 -15.524,-27.687 -38,-27.687Z" style="fill:#294033;fill-rule:nonzero;"/><path d="M2848.41,737.12c0,-29.098 -11.947,-50.597 -34.856,-50.597c-23.347,-0 -35.29,21.499 -35.29,50.597c0,29.105 11.943,50.49 35.29,50.49c22.909,0 34.856,-21.385 34.856,-50.49Zm-117.162,0.327c-0,-51.684 31.489,-86.214 82.089,-86.214c50.597,0 82.085,34.53 82.085,86.214c0,51.36 -31.488,85.996 -82.085,85.996c-50.6,0 -82.089,-34.636 -82.089,-85.996Z" style="fill:#294033;fill-rule:nonzero;"/><path d="M2903.58,737.447c0,-51.145 31.268,-86.214 81.869,-86.214c43.542,0 72.75,25.301 74.703,63.848l-43.648,-0c-2.497,-16.615 -13.357,-27.798 -30.295,-27.798c-21.499,0 -35.613,18.021 -35.613,49.51c0,31.929 14.008,50.057 35.613,50.057c15.855,-0 27.581,-9.99 30.295,-27.798l43.648,0c-2.17,38.331 -30.074,64.391 -74.487,64.391c-51.356,0 -82.085,-35.289 -82.085,-85.996Z" style="fill:#294033;fill-rule:nonzero;"/><path d="M3074.6,653.404l46.256,-0l-0,166.782l-46.256,-0l-0,-166.782Zm-1.737,-44.952c-0,-12.814 11.293,-23.347 24.973,-23.347c13.79,-0 25.084,10.533 25.084,23.347c-0,12.92 -11.294,23.452 -25.084,23.452c-13.68,0 -24.973,-10.532 -24.973,-23.452Z" style="fill:#294033;fill-rule:nonzero;"/><path d="M3251.49,719.965c-0.106,-19.868 -14.007,-34.202 -34.096,-34.202c-20.518,-0 -34.963,15.2 -35.939,34.202l70.035,0Zm-115.748,17.588c0,-51.467 31.816,-86.32 80.896,-86.32c44.081,0 78.394,28.015 78.394,84.693l0,12.703l-113.577,0l-0,0.111c-0,24.863 14.661,40.174 37.787,40.174c15.421,-0 27.364,-6.622 32.032,-19.325l42.781,2.82c-6.515,30.945 -34.312,51.034 -75.574,51.034c-51.357,0 -82.739,-33.009 -82.739,-85.89Z" style="fill:#294033;fill-rule:nonzero;"/><path d="M3395.56,688.15l-31.378,-0l-0,80.785c-0,12.814 6.405,16.288 15.634,16.288c4.344,-0 9.229,-1.087 11.51,-1.52l7.275,34.419c-4.668,1.52 -13.137,3.907 -25.084,4.344c-33.549,1.411 -55.808,-14.767 -55.591,-47.453l-0,-86.863l-22.803,-0l-0,-34.746l22.803,-0l-0,-39.958l46.256,0l-0,39.958l31.378,-0l0,34.746Z" style="fill:#294033;fill-rule:nonzero;"/><path d="M3418.97,877.951l10.422,-34.529c16.288,4.995 27.904,4.234 33.986,-11.4l2.714,-7.058l-59.826,-171.56l48.643,-0l34.53,122.48l1.737,-0l34.852,-122.48l48.97,-0l-64.82,184.807c-9.446,26.927 -27.688,44.519 -62.111,44.519c-11.726,-0 -22.476,-1.954 -29.097,-4.779Z" style="fill:#294033;fill-rule:nonzero;"/><path d="M1412.87,965.957c-17.462,0 -30.579,14.07 -30.579,38.047c0,23.843 12.987,38.047 30.579,38.047c17.544,0 30.618,-14.117 30.574,-38.047c0,-23.933 -13.03,-38.047 -30.574,-38.047Zm-0,83.736c-22.5,-0 -38.441,-17.891 -38.441,-45.689c-0,-27.798 15.984,-45.693 38.441,-45.693c22.496,0 38.48,17.852 38.48,45.693c-0,27.841 -15.984,45.689 -38.48,45.689Z" style="fill:#294033;fill-rule:nonzero;"/><path d="M1495.43,959.529l51.467,-0l-0,7.295l-43.345,-0l-0,33.489l39.307,0l0,7.295l-39.307,0l-0,40.872l-8.122,-0l-0,-88.951Z" style="fill:#294033;fill-rule:nonzero;"/><path d="M1677.55,965.567c-12.423,0 -20.979,6.992 -20.979,16.544c-0,9.383 9.076,13.771 17.722,16.201l9.378,2.694c11.294,3.171 24.151,9.076 24.151,23.847c-0,14.244 -11.554,25.147 -30.839,25.147c-18.155,0 -29.622,-9.686 -30.575,-23.76l8.339,-0c0.867,10.556 10.25,16.331 22.236,16.331c13.29,0 22.976,-7.165 22.976,-17.852c0,-9.075 -7.555,-13.203 -18.588,-16.417l-10.643,-3.124c-13.94,-4.128 -22.019,-11.293 -22.019,-22.716c-0,-14.335 12.64,-24.194 29.058,-24.194c16.548,0 28.231,9.989 28.837,23.5l-7.862,0c-0.996,-9.906 -9.422,-16.201 -21.192,-16.201Z" style="fill:#294033;fill-rule:nonzero;"/><path d="M1786.3,965.957c-17.462,0 -30.575,14.07 -30.575,38.047c-0,23.843 12.983,38.047 30.575,38.047c17.548,0 30.618,-14.117 30.578,-38.047c0,-23.933 -13.03,-38.047 -30.578,-38.047Zm-0,83.736c-22.5,-0 -38.437,-17.891 -38.437,-45.689c-0,-27.798 15.98,-45.693 38.437,-45.693c22.499,0 38.48,17.852 38.48,45.693c-0,27.841 -15.981,45.689 -38.48,45.689Z" style="fill:#294033;fill-rule:nonzero;"/><path d="M1936.27,959.529l-0,58.896c-0,18.155 -13.637,31.575 -33.702,31.575c-20.022,0 -33.746,-13.42 -33.703,-31.575l0,-58.896l8.123,-0l-0,58.329c-0,14.16 10.076,24.496 25.58,24.496c15.504,0 25.58,-10.336 25.58,-24.496l-0,-58.329l8.122,-0Z" style="fill:#294033;fill-rule:nonzero;"/><path d="M1978.97,959.529l64.498,-0l-0,7.295l-28.188,-0l-0,81.656l-8.122,-0l-0,-81.656l-28.188,-0l0,-7.295Z" style="fill:#294033;fill-rule:nonzero;"/><path d="M2086.16,959.529l8.122,-0l-0,40.784l50.467,0l-0,-40.784l8.122,-0l-0,88.951l-8.122,-0l-0,-40.872l-50.467,0l-0,40.872l-8.122,-0l-0,-88.951Z" style="fill:#294033;fill-rule:nonzero;"/><path d="M2304.19,1014.38l-15.764,-44.302l-0.61,0l-15.764,44.302l32.138,0Zm-52.771,34.097l32.359,-88.951l8.686,-0l32.359,88.951l-8.512,-0l-9.513,-26.798l-37.354,0l-9.512,26.798l-8.513,-0Z" style="fill:#294033;fill-rule:nonzero;"/><path d="M2431.93,959.529l-0,58.896c-0,18.155 -13.637,31.575 -33.702,31.575c-20.023,0 -33.75,-13.42 -33.707,-31.575l0,-58.896l8.123,-0l-0,58.329c-0,14.16 10.076,24.496 25.584,24.496c15.504,0 25.58,-10.336 25.58,-24.496l-0,-58.329l8.122,-0Z" style="fill:#294033;fill-rule:nonzero;"/><path d="M2507.11,965.567c-12.42,0 -20.975,6.992 -20.975,16.544c-0,9.383 9.075,13.771 17.717,16.201l9.383,2.694c11.293,3.171 24.15,9.076 24.15,23.847c0,14.244 -11.553,25.147 -30.838,25.147c-18.155,0 -29.622,-9.686 -30.575,-23.76l8.339,-0c0.867,10.556 10.249,16.331 22.236,16.331c13.29,0 22.976,-7.165 22.976,-17.852c0,-9.075 -7.555,-13.203 -18.588,-16.417l-10.643,-3.124c-13.941,-4.128 -22.02,-11.293 -22.02,-22.716c0,-14.335 12.641,-24.194 29.059,-24.194c16.543,0 28.23,9.989 28.837,23.5l-7.862,0c-0.997,-9.906 -9.422,-16.201 -21.196,-16.201Z" style="fill:#294033;fill-rule:nonzero;"/><path d="M2576.04,959.529l64.497,-0l0,7.295l-28.187,-0l-0,81.656l-8.123,-0l0,-81.656l-28.187,-0l-0,-7.295Z" style="fill:#294033;fill-rule:nonzero;"/><path d="M2711.85,1005.09c13.941,0 20.763,-7.299 20.763,-18.939c-0,-11.639 -6.822,-19.328 -20.892,-19.328l-20.369,-0l-0,38.267l20.498,0Zm-28.621,-45.562l28.708,-0c18.892,-0 28.664,11.076 28.664,26.623c0,11.9 -5.731,21.023 -16.808,24.671l20.546,37.657l-9.382,-0l-19.502,-36.094c-1.084,0.087 -2.214,0.13 -3.388,0.13l-20.715,0l-0,35.964l-8.123,-0l0,-88.951Z" style="fill:#294033;fill-rule:nonzero;"/><path d="M2829.25,1014.38l-15.768,-44.302l-0.606,0l-15.769,44.302l32.143,0Zm-52.771,34.097l32.359,-88.951l8.686,-0l32.355,88.951l-8.513,-0l-9.508,-26.798l-37.354,0l-9.513,26.798l-8.512,-0Z" style="fill:#294033;fill-rule:nonzero;"/><path d="M2889.58,959.529l8.122,-0l0,81.652l42.392,-0l-0,7.299l-50.514,-0l0,-88.951Z" style="fill:#294033;fill-rule:nonzero;"/><rect x="2982.83" y="959.529" width="8.122" height="88.951" style="fill:#294033;fill-rule:nonzero;"/><path d="M3083.42,1014.38l-15.764,-44.302l-0.61,0l-15.764,44.302l32.138,0Zm-52.771,34.097l32.359,-88.951l8.686,-0l32.359,88.951l-8.516,-0l-9.509,-26.798l-37.354,0l-9.509,26.798l-8.516,-0Z" style="fill:#294033;fill-rule:nonzero;"/></g><g><path d="M1445.23,1300.66c-41.107,-0 -72.019,33.373 -72.019,90.25c0,56.671 30.701,90.25 73.368,90.25c38.322,0 65.423,-26.474 65.933,-69.632l-61.396,0l0,-17.317l80.15,-0l-0,17.317c-0,54.08 -35.344,87.771 -84.687,87.771c-55.236,-0 -92.016,-42.344 -92.016,-108.389c0,-66.145 37.209,-108.389 90.667,-108.389c46.154,0 77.793,31.64 84.581,68.83l-19.779,0c-7.621,-28.022 -29.974,-50.691 -64.802,-50.691Z" style="fill:#294033;fill-rule:nonzero;"/><path d="M1667.94,1418.01c-0,-35.45 -18.344,-65.312 -51.208,-65.312c-32.864,0 -51.208,29.862 -51.208,65.312c0,35.437 18.344,64.914 51.208,64.914c32.864,-0 51.208,-29.477 51.208,-64.914Zm-120.846,-0c-0,-48.529 28.643,-82.014 69.638,-82.014c41.001,-0 69.644,33.485 69.644,82.014c0,48.217 -28.643,81.697 -69.644,81.697c-40.995,-0 -69.638,-33.48 -69.638,-81.697Z" style="fill:#294033;fill-rule:nonzero;"/><path d="M1872.17,1417.39c-0,-37.917 -17.511,-64.696 -48.423,-64.696c-31.727,0 -48.833,28.215 -48.833,64.696c-0,36.886 17.318,65.53 48.833,65.53c30.701,-0 48.423,-27.32 48.423,-65.53Zm-115.693,0.299c0,-48.728 26.375,-81.697 65.424,-81.697c28.948,-0 42.026,18.138 48.323,32.348l1.647,-0l0,-82.934l18.431,-0l-0,210.996l-17.921,0l0,-29.364l-2.157,-0c-6.489,14.427 -19.891,32.665 -48.64,32.665c-38.838,-0 -65.107,-32.864 -65.107,-82.014Z" style="fill:#294033;fill-rule:nonzero;"/><path d="M2127.68,1415.53l-37.402,-105.088l-1.436,-0l-37.395,105.088l76.233,-0Zm-125.172,80.876l76.749,-210.996l20.613,-0l76.749,210.996l-20.19,0l-22.564,-63.559l-88.603,0l-22.564,63.559l-20.19,0Z" style="fill:#294033;fill-rule:nonzero;"/><path d="M2923.94,1406.56c0,-30.483 -19.885,-53.862 -48.211,-53.862c-28.961,0 -48.846,24.404 -50.798,53.862l99.009,-0Zm-117.551,11.649c0,-47.913 28.326,-82.213 69.34,-82.213c34.3,-0 66.965,24.833 66.965,77.694l-0,9.056l-117.868,0c0.833,36.563 21.321,60.178 53.687,60.178c22.459,-0 36.781,-11.755 42.86,-25.971l17.399,5.657c-7.211,19.885 -28.532,37.097 -60.259,37.097c-44.314,-0 -72.124,-33.48 -72.124,-81.498Z" style="fill:#294033;fill-rule:nonzero;"/><path d="M3344.95,1338.16l17.815,-0l-0,24.323l1.666,0c6.278,-16.379 21.731,-26.374 42.436,-26.374c21.837,-0 35.749,10.809 42.754,28.73l1.343,-0c7.111,-17.511 23.807,-28.73 46.887,-28.73c29.352,-0 47.59,18.84 47.59,54.29l-0,106.008l-18.35,0l0,-106.008c0,-24.938 -13.893,-37.507 -34.81,-37.507c-24.105,-0 -37.718,16.59 -37.718,39.366l-0,104.149l-18.735,0l-0,-107.655c-0,-21.433 -12.581,-35.86 -34.207,-35.86c-21.943,-0 -38.322,17.51 -38.322,42.151l0,101.364l-18.349,0l-0,-158.247Z" style="fill:#294033;fill-rule:nonzero;"/><rect x="1712.31" y="1285.41" width="18.35" height="210.996" style="fill:#294033;fill-rule:nonzero;"/><rect x="2197.55" y="1285.41" width="18.343" height="210.996" style="fill:#294033;fill-rule:nonzero;"/><rect x="2252.75" y="1285.41" width="18.35" height="210.996" style="fill:#294033;fill-rule:nonzero;"/><path d="M2308.18,1338.16l18.437,-0l0,158.247l-18.437,0l0,-158.247Zm-4.345,-40.392c0,-7.198 6.192,-13.19 13.719,-13.19c7.522,-0 13.793,5.992 13.793,13.19c0,7.211 -6.271,13.184 -13.793,13.184c-7.527,0 -13.719,-5.973 -13.719,-13.184Z" style="fill:#294033;fill-rule:nonzero;"/><path d="M2458.06,1435.72l0,-22.862c-5.352,5.265 -28.426,8.13 -41.405,9.678c-26.797,3.295 -42.449,11.338 -42.449,30.502c-0,19.152 15.453,30.185 36.158,30.185c29.265,-0 47.696,-21.539 47.696,-47.503Zm-102.198,16.485c0,-31.322 25.045,-41.299 60.793,-45.731c26.574,-3.295 41.405,-3.512 41.405,-15.453l0,-3.705c0,-21.644 -13.29,-34.834 -37.29,-34.834c-22.869,-0 -37.19,11.648 -42.965,25.243l-17.405,-6.291c10.704,-25.846 35.643,-35.437 59.854,-35.437c24.212,-0 56.156,10.511 56.156,52.966l-0,107.444l-18.35,0l0,-25.026l-1.131,0c-6.596,14.005 -22.67,28.619 -49.045,28.619c-28.736,0 -52.022,-17.293 -52.022,-47.795Z" style="fill:#294033;fill-rule:nonzero;"/><path d="M2529.1,1496.41l-18.344,0l0,-158.247l17.834,-0l0,24.833l1.629,-0c7.428,-16.18 23.397,-26.884 46.583,-26.884c31.937,-0 53.669,20.295 53.669,57.796l-0,102.502l-18.344,0l0,-101.364c0,-25.859 -15.652,-42.151 -39.969,-42.151c-24.926,-0 -43.058,17.001 -43.058,44.612l-0,98.903Z" style="fill:#294033;fill-rule:nonzero;"/><path d="M2656.4,1418.01c-0,-47.609 28.214,-82.014 69.638,-82.014c31.733,-0 56.261,19.785 60.587,49.156l-18.542,-0c-3.916,-17.94 -19.176,-32.454 -41.741,-32.454c-30.383,0 -51.512,26.375 -51.512,64.696c0,38.533 20.513,65.53 51.512,65.53c21.023,-0 37.613,-12.482 41.828,-32.672l18.561,0c-4.239,28.644 -27.419,49.455 -60.389,49.455c-42.542,-0 -69.942,-34.511 -69.942,-81.697Z" style="fill:#294033;fill-rule:nonzero;"/><path d="M3048.28,1285.41l122.089,-0l-0,17.318l-102.825,-0l-0,79.428l93.234,-0l-0,17.299l-93.234,-0l-0,96.951l-19.264,0l0,-210.996Z" style="fill:#294033;fill-rule:nonzero;"/><path d="M3200.43,1338.16l18.436,-0l0,158.247l-18.436,0l-0,-158.247Zm-4.345,-40.392c-0,-7.198 6.191,-13.19 13.706,-13.19c7.534,-0 13.806,5.992 13.806,13.19c-0,7.211 -6.272,13.184 -13.806,13.184c-7.515,0 -13.706,-5.973 -13.706,-13.184Z" style="fill:#294033;fill-rule:nonzero;"/><path d="M3250.14,1338.16l17.827,-0l0,24.323l1.331,0c6.383,-15.975 23.378,-26.698 43.269,-26.698c2.997,0 7.211,0.212 9.691,0.324l0,18.641c-1.647,-0.211 -6.185,-1.025 -11.021,-1.025c-24.727,-0 -42.754,17.001 -42.754,40.485l0,102.197l-18.343,0l-0,-158.247Z" style="fill:#294033;fill-rule:nonzero;"/></g><path d="M1071.91,1490.74l-0,-222.792l0.337,-0.35c0.063,-0.071 6.354,-6.9 18.108,-9.529c73.28,-17.879 94.692,-51.963 100.663,-73.917l-0,306.546l-119.108,0.042Zm-787.763,-302.488c7.492,21.913 30.571,53.025 99.483,69.838c11.671,2.608 17.963,9.437 18.125,9.616l0.046,0.05l0,223.217l-117.654,0.042l0,-302.763Zm790.042,-322.779l116.829,0l-0,289.812l-116.829,-289.812Zm-123.171,333.571c0.2,0.379 0.375,0.75 0.583,1.129c18.75,33.788 60.608,50.133 92.504,57.917c11.667,2.608 17.959,9.437 18.038,9.525l0.787,0.87l0,222.259l-111.912,0.037l-0,-291.737Zm-167.313,260.066c-14.333,-13.208 -27.812,-27.399 -40.529,-42.329c133.013,-160.2 181.279,-404.104 198.354,-538.908c0.171,0.042 0.338,0.079 0.509,0.121l-0,612.791l-110.554,0.038c-28.517,-14.229 -47.596,-31.546 -47.78,-31.713Zm-251.258,-585.929c5.571,45.109 14.5,101.98 28.704,163.438c30.771,133.121 93.304,315.629 216.479,429.104c0.667,0.612 13.879,12.617 35.08,25.108l-280.263,0.1l0,-617.75Zm-121.667,395.509l0.992,-1.092c0.063,-0.071 6.358,-6.9 18.108,-9.529c31.813,-7.763 73.671,-24.108 92.421,-57.896c0.421,-0.758 0.784,-1.504 1.167,-2.25l-0,293.008l-112.688,0.042l0,-222.283Zm-120.962,-103.313l232.529,0c0.625,11.888 -2.508,61.5 -94.512,83.95c-10.984,2.454 -18.117,7.942 -21.121,10.671c-3.021,-2.746 -10.138,-8.217 -21.038,-10.65c-100.029,-24.408 -96.433,-78.837 -95.858,-83.971Zm-5.671,-13.141l0,-286.763l116.888,0l-116.888,286.763Zm127.121,-299.909c1.679,-18.283 13.1,-78.116 89.396,-92.025c7.025,-1.279 14.696,-2.029 22.804,-2.3l-0,98.488l-112.2,-0l-0,-4.163Zm651.946,-151.191c-10.988,27.104 -54.655,25.149 -113.404,10.504c-10.692,-101.404 -91.059,-180.559 -192.238,-190.088l0,-39.875l-1.167,0c11.817,-6.75 19.813,-19.446 19.813,-33.996c-0,-21.587 -17.563,-39.15 -39.15,-39.15c-21.588,0 -39.15,17.563 -39.15,39.15c-0,14.221 7.65,26.659 19.021,33.517l-0,40.308c-57.217,5.4 -110.634,34.275 -146.709,79.355l0.325,0.262c-18.354,-2.071 -35.354,-2.533 -50.575,-0.9c-58.929,6.313 -87.758,29.567 -101.562,47.963c-1.95,2.595 -3.658,5.166 -5.167,7.679c17.925,-162.921 156.375,-290.092 323.992,-290.092c87.487,0 169.333,34.287 230.467,96.55c61.587,62.725 95.504,147.342 95.504,238.262l-0,0.551Zm8.979,183.404l109.591,271.858l-109.591,-0l-0,-271.858Zm-8.979,0.529l-0,271.329l-109.088,-0l109.088,-271.329Zm-56.221,2.025c20.55,-0 37.883,-3.954 51.021,-13.154l-106.996,266.12l-0,-260.02c20.408,4.45 39.254,7.058 55.975,7.054Zm-193.771,405.979l-17.817,-462.992c48.5,17.846 95.642,34.884 137.346,45.613c-13.037,103.491 -44.629,272.566 -119.529,417.379Zm-70.871,-482.438c13.992,5.059 28.009,10.221 41.954,15.359c0.663,0.246 1.321,0.487 1.988,0.733l18.55,482.117c-18.296,33.483 -39.021,65.446 -62.492,94.746l0,-592.955Zm-50.833,-17.808c13.837,4.642 27.821,9.538 41.854,14.571l0,597.542c-24.904,-30.975 -46.646,-64.859 -65.621,-100.075l23.767,-512.038Zm-159.071,-34.921c43.054,0.517 95.263,13.934 150.217,31.984l-23.171,499.233c-43.896,-85.983 -71.958,-178.292 -89.55,-254.362c-33.113,-143.171 -37.429,-261.321 -37.467,-262.496l-0.029,-0l0,-14.359Zm-31.783,-48.791c70.47,-12.846 178.837,27.079 283.641,65.691c84.484,31.13 165.838,61.1 222.688,61.1c23.383,0 42.617,-5.087 56.216,-17.245l0,38.049c-37.287,48.734 -153.17,6.042 -275.799,-39.141c-31.821,-11.725 -64.013,-23.579 -95.459,-34.071l0.008,-0.171l-0.616,-0.029c-58.917,-19.629 -115.183,-34.408 -161.425,-34.408c-0.642,-0 -1.283,-0 -1.917,0.008c-10.354,0.092 -20.091,0.958 -28.95,2.571c-52.671,9.6 -76.766,39.604 -87.779,65.225l0,-15.575c1.683,-18.304 13.121,-78.1 89.392,-92.004Zm-0,-51.513c70.47,-12.846 178.837,27.079 283.641,65.692c84.484,31.129 165.838,61.1 222.688,61.1c23.383,-0 42.617,-5.092 56.221,-17.25l-0.005,38.341c-37.266,48.767 -153.149,6.084 -275.799,-39.104c-105.934,-39.029 -215.476,-79.391 -288.359,-66.1c-52.704,9.609 -76.775,39.638 -87.783,65.271l-0,-15.937c1.683,-18.292 13.112,-78.109 89.396,-92.013Zm216.275,-21.016c-48.604,-15.492 -95.446,-28.442 -136.271,-34.175c34.283,-40.621 83.542,-66.65 136.271,-71.855l-0,106.03Zm20.129,-149.755c4.008,0 7.879,-0.612 11.525,-1.737l-0,161.821c-7.583,-2.525 -15.146,-5.013 -22.675,-7.45l-0,-154.275c3.537,1.054 7.275,1.641 11.15,1.641Zm-30.171,-39.15c0,-16.637 13.533,-30.17 30.171,-30.17c16.633,-0 30.171,13.533 30.171,30.17c-0,16.634 -13.538,30.171 -30.171,30.171c-16.638,0 -30.171,-13.537 -30.171,-30.171Zm50.675,82.888c95.413,9.379 171.288,83.421 182.896,178.667c-40.617,-10.734 -87.658,-26.83 -135.733,-43.288c-15.688,-5.367 -31.455,-10.763 -47.163,-16.033l0,-119.346Zm-346.25,156.983c0.675,-7.971 9.1,-67.633 109.613,-78.404c68.645,-7.354 176.541,29.579 280.891,65.296c86.713,29.683 165.738,56.733 216.308,56.729c19.805,-0 35.259,-4.154 45.08,-13.925l-0,36.721c-37.267,48.771 -153.154,6.087 -275.804,-39.1c-105.938,-39.029 -215.492,-79.388 -288.359,-66.1c-52.708,9.608 -76.779,39.641 -87.783,65.271l-0,-22.3c-0,-1.4 0.037,-2.792 0.054,-4.188Zm-0.054,198.967l108.508,269.879l-108.508,-0l-0,-269.879Zm-119.121,269.879l110.142,-270.221l-0,270.221l-110.142,-0Zm231.321,-14.892l-110.988,-276.033l110.988,0l-0,276.033Zm564.842,107.821c-11.034,2.467 -18.184,7.996 -21.126,10.667c-3.024,-2.746 -10.137,-8.213 -21.033,-10.646c-92.083,-22.471 -95.221,-72.083 -94.596,-83.971l232.525,0c0.584,5.279 4.038,59.596 -95.77,83.95Zm-350.73,-1024.83c121.7,0 235.559,47.7 320.6,134.308c85.663,87.246 132.838,204.93 132.838,331.371l-0,166.309l-118.825,-0l-0,-155.905c-0,-93.287 -34.829,-180.137 -98.075,-244.554c-62.834,-63.991 -146.959,-99.237 -236.875,-99.237c-183.213,-0 -332.513,147.862 -334.896,330.521c-0.033,0.429 -0.05,0.746 -0.054,0.841l-0,3.409c-0,0.058 -0.004,0.121 -0.004,0.179l-0,164.746l-118.142,-0l0,-178.555c0,-250.024 203.408,-453.433 453.433,-453.433Zm327.009,128.017c-86.746,-88.342 -202.879,-136.996 -327.009,-136.996c-254.975,-0 -462.412,207.437 -462.412,462.412l-0,822.063l924.829,-0.325l-0,-809.492c-0,-128.812 -48.092,-248.729 -135.408,-337.662Z" style="fill:#294033;fill-rule:nonzero;"/><path d="M1354.56,1163.71l2190.87,0" style="fill:none;stroke:#fecc45;stroke-width:12.17px;"/></g></svg>