<svg id="Layer_1" data-name="Layer 1" xmlns="http://www.w3.org/2000/svg" xmlns:xlink="http://www.w3.org/1999/xlink" viewBox="0 0 1484.97 1484.97"><defs><style>.cls-1{fill:url(#linear-gradient);}.cls-2{fill:url(#linear-gradient-2);}.cls-3{fill:url(#linear-gradient-3);}.cls-4{fill:url(#linear-gradient-4);}.cls-5{fill:url(#linear-gradient-5);}.cls-6{fill:url(#linear-gradient-6);}.cls-7{fill:url(#linear-gradient-7);}.cls-8{fill:url(#linear-gradient-8);}.cls-9{fill:url(#linear-gradient-9);}.cls-10{fill:url(#linear-gradient-10);}.cls-11{fill:url(#linear-gradient-11);}.cls-12{fill:url(#linear-gradient-12);}.cls-13{fill:url(#linear-gradient-13);}.cls-14{fill:url(#linear-gradient-14);}.cls-15{fill:url(#linear-gradient-15);}.cls-16{fill:url(#linear-gradient-16);}.cls-17{fill:url(#linear-gradient-17);}.cls-18{fill:url(#linear-gradient-18);}.cls-19{fill:url(#linear-gradient-19);}.cls-20{opacity:0.2;fill:url(#linear-gradient-20);}.cls-21{fill:url(#linear-gradient-21);}.cls-22{fill:url(#linear-gradient-22);}.cls-23{fill:url(#linear-gradient-23);}</style><linearGradient id="linear-gradient" x1="254.43" y1="1000.06" x2="254.43" y2="1143.94" gradientUnits="userSpaceOnUse"><stop offset="0" stop-color="#a1550b"/><stop offset="0.41" stop-color="#f8e297"/><stop offset="0.73" stop-color="#b47026"/><stop offset="1" stop-color="#c98b41"/></linearGradient><linearGradient id="linear-gradient-2" x1="399.98" y1="1000.06" x2="399.98" y2="1143.94" xlink:href="#linear-gradient"/><linearGradient id="linear-gradient-3" x1="548.9" y1="1000.06" x2="548.9" y2="1143.94" xlink:href="#linear-gradient"/><linearGradient id="linear-gradient-4" x1="739.9" y1="1000.06" x2="739.9" y2="1143.94" xlink:href="#linear-gradient"/><linearGradient id="linear-gradient-5" x1="847.56" y1="1000.06" x2="847.56" y2="1143.94" xlink:href="#linear-gradient"/><linearGradient id="linear-gradient-6" x1="981.88" y1="1000.06" x2="981.88" y2="1143.94" xlink:href="#linear-gradient"/><linearGradient id="linear-gradient-7" x1="1127.63" y1="1000.06" x2="1127.63" y2="1143.94" xlink:href="#linear-gradient"/><linearGradient id="linear-gradient-8" x1="1256.53" y1="1000.06" x2="1256.53" y2="1143.94" xlink:href="#linear-gradient"/><linearGradient id="linear-gradient-9" x1="341.86" y1="1187.22" x2="341.86" y2="1250.72" xlink:href="#linear-gradient"/><linearGradient id="linear-gradient-10" x1="444.74" y1="1187.22" x2="444.74" y2="1250.72" xlink:href="#linear-gradient"/><linearGradient id="linear-gradient-11" x1="549.31" y1="1187.22" x2="549.31" y2="1250.72" xlink:href="#linear-gradient"/><linearGradient id="linear-gradient-12" x1="650.05" y1="1187.22" x2="650.05" y2="1250.72" xlink:href="#linear-gradient"/><linearGradient id="linear-gradient-13" x1="754.34" y1="1187.22" x2="754.34" y2="1250.72" xlink:href="#linear-gradient"/><linearGradient id="linear-gradient-14" x1="840" y1="1187.22" x2="840" y2="1250.72" xlink:href="#linear-gradient"/><linearGradient id="linear-gradient-15" x1="932.97" y1="1187.22" x2="932.97" y2="1250.72" xlink:href="#linear-gradient"/><linearGradient id="linear-gradient-16" x1="1048.86" y1="1187.22" x2="1048.86" y2="1250.72" xlink:href="#linear-gradient"/><linearGradient id="linear-gradient-17" x1="1151.01" y1="1187.22" x2="1151.01" y2="1250.72" xlink:href="#linear-gradient"/><linearGradient id="linear-gradient-18" x1="487.96" y1="627.92" x2="966.09" y2="920.46" gradientTransform="translate(-22.69 35.81) rotate(-1.07)" xlink:href="#linear-gradient"/><linearGradient id="linear-gradient-19" x1="602.7" y1="229.61" x2="1063.76" y2="511.71" xlink:href="#linear-gradient"/><linearGradient id="linear-gradient-20" x1="905.73" y1="301.97" x2="650.59" y2="868.15" gradientUnits="userSpaceOnUse"><stop offset="0" stop-color="#fff"/><stop offset="0.01" stop-color="#fff" stop-opacity="0.96"/><stop offset="0.05" stop-color="#fff" stop-opacity="0.78"/><stop offset="0.09" stop-color="#fff" stop-opacity="0.61"/><stop offset="0.14" stop-color="#fff" stop-opacity="0.47"/><stop offset="0.2" stop-color="#fff" stop-opacity="0.34"/><stop offset="0.25" stop-color="#fff" stop-opacity="0.23"/><stop offset="0.32" stop-color="#fff" stop-opacity="0.15"/><stop offset="0.4" stop-color="#fff" stop-opacity="0.08"/><stop offset="0.49" stop-color="#fff" stop-opacity="0.03"/><stop offset="0.63" stop-color="#fff" stop-opacity="0.01"/><stop offset="1" stop-color="#fff" stop-opacity="0"/></linearGradient><linearGradient id="linear-gradient-21" x1="438.95" y1="383.66" x2="1092.53" y2="783.55" xlink:href="#linear-gradient"/><linearGradient id="linear-gradient-22" x1="398.92" y1="449.09" x2="1052.5" y2="848.98" xlink:href="#linear-gradient"/><linearGradient id="linear-gradient-23" x1="492.8" y1="295.65" x2="1146.38" y2="695.54" xlink:href="#linear-gradient"/></defs><title>SVG</title><rect width="1484.97" height="1484.97"/><path class="cls-1" d="M208.36,1126.38Q188,1105.95,188,1072.55t20.33-53.83q20.32-20.41,53.83-20.42,27.38,0,48.41,13.89l4.09,28.8h-1.84q-4.49-17.57-18.18-27.07t-32.48-9.5q-26.76,0-42.8,18.59t-16,49.23q0,30.65,15.83,49.34t41.77,19.3q22.88,0,38.2-12.46,16.56-13.49,20-43.92h1.64l-2.45,32.07Q299.77,1147,261,1147,228.68,1146.82,208.36,1126.38Z" transform="translate(-3.95)"/><path class="cls-2" d="M473.21,1142.11h1.64v2h-46v-2h1.84a7.67,7.67,0,0,0,6.44-2.76,8.64,8.64,0,0,0,2.14-5.21,15.31,15.31,0,0,0-.82-4.9l-13.07-34.73H370.25l-13.68,34.93a15,15,0,0,0-.82,4.8,8.56,8.56,0,0,0,2.14,5.11q2.14,2.76,6.44,2.76h1.84v2H325.11v-2H327a17.87,17.87,0,0,0,10-3.27,23.5,23.5,0,0,0,8-9.6l46.17-109.9q7.56-16.56,7.56-21h1.84l54.74,130.94a22.12,22.12,0,0,0,7.77,9.6A18.12,18.12,0,0,0,473.21,1142.11ZM372.7,1088.38H423l-24.52-65.58Z" transform="translate(-3.95)"/><path class="cls-3" d="M495.78,1018.83q20.33-20.54,53-20.53t53.11,20.53q20.43,20.52,20.43,53.82t-20.43,53.83Q581.48,1147,548.8,1147t-53-20.53q-20.32-20.54-20.32-53.83T495.78,1018.83ZM507,1122.09q15.83,18.79,41.88,18.79t41.88-18.79q15.83-18.79,15.83-49.44,0-20.22-7.15-35.75t-20.33-24q-13.17-8.48-30.33-8.48-25.95,0-41.78,18.8t-15.83,49.43Q491.19,1103.29,507,1122.09Z" transform="translate(-3.95)"/><path class="cls-4" d="M694.24,1142.11a12.39,12.39,0,0,0,9.09-3.78,13.17,13.17,0,0,0,4-9.09V1016.07a13.17,13.17,0,0,0-4-9.09,12.39,12.39,0,0,0-9.09-3.78h-2.65v-2.05h44.74v2.05h-2.66a13,13,0,0,0-13.08,12.87v121.75h29.22q15.12,0,23.08-6.74t13.28-20h2.05l-11.85,33.09H691.59v-2Z" transform="translate(-3.95)"/><path class="cls-5" d="M801.9,1142.11a12.39,12.39,0,0,0,9.09-3.78,13.12,13.12,0,0,0,4-9.09v-114.4a13.08,13.08,0,0,0-4.28-8.27,12.58,12.58,0,0,0-8.79-3.37h-2.45l-.2-2.05H859.1a85.07,85.07,0,0,0,13.79-1.22,56.36,56.36,0,0,0,10.52-2.45v25.74h-2v-3.68a12.06,12.06,0,0,0-11.44-12.06H828.25v63.13h34.53a10.16,10.16,0,0,0,6.94-3.07,9.67,9.67,0,0,0,2.86-7.14v-2.86h2v32.27h-2v-3.06a9.65,9.65,0,0,0-2.76-7,9.87,9.87,0,0,0-6.84-3.06H828.25v61.08h29.22q15.1,0,23.08-6.74t13.28-20h2L884,1144.15H799.25v-2Z" transform="translate(-3.95)"/><path class="cls-6" d="M929.27,1126.38q-20.32-20.43-20.32-53.73t20.32-53.82q20.33-20.54,53-20.53,28.2,0,49.64,13.89L1036,1041h-1.84q-4.49-17.57-18.08-27.07t-33.81-9.5q-25.93,0-42,18.8t-16,49.43q0,30.64,16,49.34t42,18.89a68.16,68.16,0,0,0,25.23-4.7,65.36,65.36,0,0,0,20.94-13.07V1087c0-3-.92-5.28-2.76-6.84s-4.39-2.35-7.66-2.35h-3.27v-2h40v2h-3.06c-3.41,0-6,.78-7.76,2.35s-2.59,3.85-2.46,6.84v33.71a64.78,64.78,0,0,1-12.66,12.46q-7.35,5.52-19.71,9.7a83,83,0,0,1-26.87,4.19Q949.6,1146.82,929.27,1126.38Z" transform="translate(-3.95)"/><path class="cls-7" d="M1200.87,1142.11h1.63v2h-46v-2h1.84q4.29,0,6.43-2.76a8.66,8.66,0,0,0,2.15-5.21,15.59,15.59,0,0,0-.82-4.9l-13.08-34.73h-55.15l-13.69,34.93a15,15,0,0,0-.82,4.8,8.58,8.58,0,0,0,2.15,5.11,7.65,7.65,0,0,0,6.43,2.76h1.84v2h-41.06v-2h1.84a17.87,17.87,0,0,0,10-3.27,23.52,23.52,0,0,0,8-9.6l46.16-109.9q7.56-16.56,7.56-21h1.84l54.75,130.94a22,22,0,0,0,7.76,9.6A18.15,18.15,0,0,0,1200.87,1142.11Zm-100.51-53.73h50.25l-24.51-65.58Z" transform="translate(-3.95)"/><path class="cls-8" d="M1210.87,1142.11a12.39,12.39,0,0,0,9.09-3.78,13.17,13.17,0,0,0,4-9.09V1016.07a13.17,13.17,0,0,0-4-9.09,12.39,12.39,0,0,0-9.09-3.78h-2.65v-2.05H1253v2.05h-2.65a13,13,0,0,0-13.08,12.87v121.75h29.22q15.12,0,23.08-6.74t13.28-20h2L1293,1144.15h-84.77v-2Z" transform="translate(-3.95)"/><path class="cls-9" d="M325.7,1247.18a28.86,28.86,0,0,1-.27-4.93,24.67,24.67,0,0,1,1.36-7.77h.83q-.09,1-.09,2a13.17,13.17,0,0,0,3.38,9.27,11.52,11.52,0,0,0,8.95,3.7,13.29,13.29,0,0,0,9.45-3.47,11.47,11.47,0,0,0,3.7-8.72,11.1,11.1,0,0,0-3.56-8.54l-17.54-16.26a14.5,14.5,0,0,1-4.93-11,15.57,15.57,0,0,1,4.34-11.09c2.89-3.07,6.8-4.62,11.73-4.62a39,39,0,0,1,7.86.92h3.56v11.23h-.83a8.58,8.58,0,0,0-3-6.85,11.3,11.3,0,0,0-7.63-2.56,10.7,10.7,0,0,0-7.81,3.11,10.46,10.46,0,0,0-3.15,7.76,10.57,10.57,0,0,0,3.66,8l18,16.62q4.56,4.2,4.56,11.51a16.34,16.34,0,0,1-4.66,12q-4.65,4.7-12.42,4.7a32.54,32.54,0,0,1-8.53-1.23A15,15,0,0,1,325.7,1247.18Z" transform="translate(-3.95)"/><path class="cls-10" d="M421,1194.9q9.08-9.2,23.7-9.19t23.74,9.19q9.13,9.16,9.14,24.06T468.44,1243q-9.13,9.18-23.74,9.18T421,1243q-9.09-9.18-9.09-24.06T421,1194.9Zm5,46.16q7.08,8.4,18.72,8.4t18.73-8.4q7.06-8.4,7.07-22.1a37.88,37.88,0,0,0-3.19-16,24,24,0,0,0-22.65-14.52q-11.59,0-18.68,8.4T418.94,1219Q418.94,1232.65,426,1241.06Z" transform="translate(-3.95)"/><path class="cls-11" d="M528.9,1250a5.51,5.51,0,0,0,4.06-1.69,5.87,5.87,0,0,0,1.78-4.07v-50.59a5.87,5.87,0,0,0-1.78-4.07,5.54,5.54,0,0,0-4.06-1.68h-1.19V1187h20v.92h-1.18a5.55,5.55,0,0,0-5,2.83,5.65,5.65,0,0,0-.82,2.92v54.43h13.06q6.76,0,10.32-3a22.33,22.33,0,0,0,5.94-8.95h.91l-5.3,14.79h-37.9V1250Z" transform="translate(-3.95)"/><path class="cls-12" d="M681.32,1187.91h-1.46a4.87,4.87,0,0,0-3.33,1.23,4.16,4.16,0,0,0-1.51,3.06v36.16q0,10.7-6.75,17.26t-18,6.58q-11.24,0-18.22-6.53t-7-17.21v-36a4.27,4.27,0,0,0-2.38-4,5.49,5.49,0,0,0-2.46-.54h-1.46V1187h18.54v.92h-1.47a4.84,4.84,0,0,0-3.38,1.23,4.35,4.35,0,0,0-1.46,3.15v34.89q0,9.94,5.35,16.07t14.29,6.12q8.94,0,14.52-5.8t5.57-15.21v-36.07a4.35,4.35,0,0,0-1.46-3.15,4.82,4.82,0,0,0-3.38-1.23h-1.46V1187h16.89Z" transform="translate(-3.95)"/><path class="cls-13" d="M779.86,1195.12a5.55,5.55,0,0,0-5.2-5.48H757.31v54.71a5.71,5.71,0,0,0,1.78,4,5.62,5.62,0,0,0,4.06,1.64h1.19v.91h-20V1250h1.19a5.85,5.85,0,0,0,5.84-5.57v-54.8H734a5.22,5.22,0,0,0-3.7,1.69,5.37,5.37,0,0,0-1.51,3.79v1.55l-.91.1v-11.51a25.41,25.41,0,0,0,4.75,1.09,38.45,38.45,0,0,0,6.21.55h30.87a34.29,34.29,0,0,0,7.44-.68,32.82,32.82,0,0,0,3.61-1v11.51l-.92-.1Z" transform="translate(-3.95)"/><path class="cls-14" d="M831.19,1250a5.53,5.53,0,0,0,4.06-1.69,5.87,5.87,0,0,0,1.78-4.07v-50.68a5.7,5.7,0,0,0-1.78-4,5.6,5.6,0,0,0-4.06-1.64H830V1187h20v.92h-1.18a5.61,5.61,0,0,0-4.07,1.64,5.7,5.7,0,0,0-1.78,4v50.68a5.5,5.5,0,0,0,1.73,4.07,5.7,5.7,0,0,0,4.12,1.69H850v.91H830V1250Z" transform="translate(-3.95)"/><path class="cls-15" d="M909.23,1194.9q9.07-9.2,23.7-9.19t23.74,9.19q9.14,9.16,9.13,24.06T956.67,1243q-9.13,9.18-23.74,9.18t-23.7-9.18q-9.09-9.18-9.09-24.06T909.23,1194.9Zm5,46.16q7.08,8.4,18.72,8.4t18.72-8.4q7.08-8.4,7.08-22.1a37.73,37.73,0,0,0-3.2-16,24,24,0,0,0-22.64-14.52q-11.61,0-18.68,8.4T907.17,1219Q907.17,1232.65,914.25,1241.06Z" transform="translate(-3.95)"/><path class="cls-16" d="M1081.51,1187.91a5.43,5.43,0,0,0-3.92,1.59,5.54,5.54,0,0,0-1.74,3.89v47.12a76.51,76.51,0,0,0,.64,10l.18,1.64h-.82l-49.77-53.15v45.48a5.31,5.31,0,0,0,2.83,4.75,5.41,5.41,0,0,0,2.74.73h1.74v.91h-18.82V1250h1.74a5.48,5.48,0,0,0,3.93-1.6,5.33,5.33,0,0,0,1.64-4V1197a70.53,70.53,0,0,0-.64-10l-.18-1.46h.91l49.77,53.16v-45.3a5.62,5.62,0,0,0-1.73-4,5.47,5.47,0,0,0-3.93-1.59h-1.73V1187h18.81v.92Z" transform="translate(-3.95)"/><path class="cls-17" d="M1134.85,1247.18a28.53,28.53,0,0,1-.28-4.93,24.44,24.44,0,0,1,1.38-7.77h.82q-.09,1-.09,2a13.21,13.21,0,0,0,3.37,9.27,11.55,11.55,0,0,0,9,3.7,13.29,13.29,0,0,0,9.45-3.47,11.47,11.47,0,0,0,3.7-8.72,11.07,11.07,0,0,0-3.57-8.54l-17.53-16.26a14.5,14.5,0,0,1-4.93-11,15.6,15.6,0,0,1,4.33-11.09c2.9-3.07,6.81-4.62,11.74-4.62a39,39,0,0,1,7.86.92h3.55v11.23h-.82a8.59,8.59,0,0,0-3-6.85,11.25,11.25,0,0,0-7.62-2.56,10.7,10.7,0,0,0-7.81,3.11,10.46,10.46,0,0,0-3.15,7.76,10.57,10.57,0,0,0,3.66,8l18,16.62q4.56,4.2,4.56,11.51a16.34,16.34,0,0,1-4.66,12q-4.65,4.7-12.42,4.7a32.48,32.48,0,0,1-8.53-1.23A15,15,0,0,1,1134.85,1247.18Z" transform="translate(-3.95)"/><path class="cls-18" d="M793.44,925.17c-153.32,2.85-284.39-89.1-337.86-221h-.5C502.84,843.68,632.6,942.49,785.22,939.66c87.36-1.62,190.24-39.18,245.66-121.83C965.43,880.89,876.09,923.64,793.44,925.17Z" transform="translate(-3.95)"/><path class="cls-19" d="M772.5,249.26c143.39,0,267.44,83.06,327.11,203.86-51.44-129.23-175.45-220.35-320.28-220.35-93.74,0-184.68,44.63-249.37,115.72C596.26,287,683.17,249.26,772.5,249.26Z" transform="translate(-3.95)"/><path class="cls-20" d="M1101.6,583c0,173.5-144.4,314.15-322.51,314.15S456.58,756.49,456.58,583,601,268.85,779.09,268.85,1101.6,409.49,1101.6,583Z" transform="translate(-3.95)"/><path class="cls-21" d="M883.33,528.36l-.2-.45V465.52a14.09,14.09,0,1,0-16.2-13.92c0,.1,0,.21,0,.31-4,2.64-18.48,9.31-47.71-4.85-33.89-16.43-61.45-20.5-94.42-3.36v-6.14s8.36-10.57,9.8-16.18,3.82-12.12-3-25c-6.48-12.29-12.8-29.6-13.39-31.22l0-.07a.24.24,0,0,0,0,.07c-.59,1.62-6.9,18.93-13.39,31.22-6.8,12.9-4.42,19.41-3,25s9.79,16.18,9.79,16.18v6.14c-33-17.14-60.52-13.07-94.42,3.36-29.23,14.16-43.68,7.49-47.7,4.85,0-.1,0-.21,0-.31a14.1,14.1,0,1,0-16.2,13.92v62.39l-.2.45-43,95.19h-.61a47.69,47.69,0,0,0,91.9,0h-.62l-43-95.19-.21-.45V465.52a14.05,14.05,0,0,0,8.78-5c23.78,16.57,35,4,76.16-6.32,29.58-7.43,48,1.47,56.36,7.43a25.74,25.74,0,0,1,3.24,11.48V710.08a26.59,26.59,0,0,1-8.77,18.78A28.46,28.46,0,0,1,673,736.63h-7v5H869.36L896.91,670h-5q-8,18-16.28,29.06t-24.29,19q-16.05,8-39.08,8H734.11v-253a24.19,24.19,0,0,1,2.4-10.67c7.75-5.89,26.5-16,57.47-8.24,41.19,10.34,52.38,22.89,76.16,6.32a14.05,14.05,0,0,0,8.78,5v62.39l-.21.45-43,95.19h-.62a47.69,47.69,0,0,0,91.9,0h-.61Zm-330,95.19H514.69l38.61-85.42Zm42.82,0H557.51V538.13Zm282.8,0H840.31l38.61-85.42Zm4.21,0V538.13l38.61,85.42Z" transform="translate(-3.95)"/><path class="cls-22" d="M681.4,561.23h-4.69q-2.61,45.56-22.66,76.28t-50.53,44.12Q573,695,532.4,695T461,675.09Q430.28,655.17,414.14,619T398,533.91q0-75.13,35.95-118.4t97.94-43.26q77.72,0,110.73,51.88h16.64l-4.94-34.81q-24-15.93-56.79-25.05a243.15,243.15,0,0,0-65.12-9.1q-79.71,0-125.81,47.81T360.48,533.63q0,82.82,46.11,130.64T532.4,712.65q45.84,0,84.4-19.63t58.87-53.8Z" transform="translate(-3.95)"/><path class="cls-23" d="M1107.14,656.28,996.22,570.62q-21.4-17.57-21.41-41.45t19.21-39q19.23-15.09,48.88-15.1t45.57,12.63q15.91,12.65,15.92,35.69h6l-1.09-59.85h-18.13q-22-4.95-50.51-4.94T991,469.31Q969.87,480,958.06,498.14a70.93,70.93,0,0,0-11.81,39.54q0,37.88,26.36,60.4l109.82,84.56q19.77,17.57,19.77,44.2t-20.32,43.37Q1061.55,787,1025.32,787q-34.59,0-54.08-18.94t-19.49-48.59a88.58,88.58,0,0,1,.54-9.89H945.7a126.68,126.68,0,0,0-7.13,41.18q0,20.32,1.65,26.91,14.26,12.63,41.18,19.22a225.56,225.56,0,0,0,53.81,6.59q40.62,0,68.91-25.81t28.28-63.15Q1132.4,677.16,1107.14,656.28Z" transform="translate(-3.95)"/></svg>